<?xml version="1.0" encoding="UTF-8" standalone="no"?>
<!-- Created with Inkscape (http://www.inkscape.org/) -->
<svg xmlns:inkscape="http://www.inkscape.org/namespaces/inkscape" xmlns:rdf="http://www.w3.org/1999/02/22-rdf-syntax-ns#" xmlns="http://www.w3.org/2000/svg" xmlns:cc="http://creativecommons.org/ns#" xmlns:dc="http://purl.org/dc/elements/1.1/" xmlns:sodipodi="http://sodipodi.sourceforge.net/DTD/sodipodi-0.dtd" id="svg2" sodipodi:docname="_svgclean2.svg" viewBox="0 0 591.22 316.31" version="1.1" inkscape:version="0.48.3.1 r9886">
  <defs id="defs4">
    <style id="style3031" type="text/css"/>
  </defs>
  <sodipodi:namedview id="base" bordercolor="#666666" inkscape:pageshadow="2" inkscape:window-y="26" fit-margin-left="0" pagecolor="#ffffff" inkscape:window-height="748" inkscape:window-maximized="0" inkscape:zoom="0.83619895" inkscape:window-x="0" showgrid="false" borderopacity="1.0" inkscape:current-layer="layer1" inkscape:cx="295.60937" inkscape:cy="-546.80067" fit-margin-top="0" fit-margin-right="0" fit-margin-bottom="0" inkscape:window-width="1024" inkscape:pageopacity="0.0" inkscape:document-units="px"/>
  <g id="layer1" inkscape:label="Layer 1" inkscape:groupmode="layer" transform="translate(-201.31 -450.56)">
    <g id="g4885">
      <path id="path3261" style="fill:#000000" sodipodi:type="star" sodipodi:sides="5" inkscape:transform-center-x="0.90389399" sodipodi:r1="18.698324" sodipodi:r2="7.4793305" inkscape:transform-center-y="-0.90389399" sodipodi:arg1="0.78539816" sodipodi:arg2="1.4137167" transform="translate(289.65 281.14)" inkscape:randomized="0" sodipodi:cy="464.73053" sodipodi:cx="194.65298" inkscape:rounded="0" inkscape:flatsided="false" d="m207.87 477.95-12.052-5.8345-9.6589 9.2731 1.8247-13.265-11.804-6.3206 13.179-2.3636 2.3636-13.179 6.3206 11.804 13.265-1.8247-9.2731 9.6589z"/>
      <path id="path3263" sodipodi:r2="7.4793305" style="fill:#000000" sodipodi:type="star" d="m207.87 477.95-12.052-5.8345-9.6589 9.2731 1.8247-13.265-11.804-6.3206 13.179-2.3636 2.3636-13.179 6.3206 11.804 13.265-1.8247-9.2731 9.6589z" sodipodi:r1="18.698324" inkscape:transform-center-x="-0.88530473" inkscape:transform-center-y="0.34920567" transform="matrix(.58007 .36339 -.36339 .58007 560.84 411.43)" sodipodi:arg2="1.4137167" sodipodi:arg1="0.78539816" inkscape:randomized="0" sodipodi:cy="464.73053" sodipodi:cx="194.65298" inkscape:rounded="0" inkscape:flatsided="false" sodipodi:sides="5"/>
      <path id="path3257" sodipodi:r2="7.4793305" style="fill:#000000" sodipodi:type="star" d="m207.87 477.95-12.052-5.8345-9.6589 9.2731 1.8247-13.265-11.804-6.3206 13.179-2.3636 2.3636-13.179 6.3206 11.804 13.265-1.8247-9.2731 9.6589z" sodipodi:r1="18.698324" inkscape:transform-center-x="0.90389399" inkscape:transform-center-y="-0.90389399" transform="translate(289.65 4.2991)" sodipodi:arg2="1.4137167" sodipodi:arg1="0.78539816" inkscape:randomized="0" sodipodi:cy="464.73053" sodipodi:cx="194.65298" inkscape:rounded="0" inkscape:flatsided="false" sodipodi:sides="5"/>
      <path id="path3259" style="fill:#000000" sodipodi:type="star" sodipodi:sides="5" inkscape:transform-center-x="-0.88530473" sodipodi:r1="18.698324" sodipodi:r2="7.4793305" inkscape:transform-center-y="0.34920567" sodipodi:arg1="0.78539816" sodipodi:arg2="1.4137167" transform="matrix(.58007 .36339 -.36339 .58007 560.84 134.59)" inkscape:randomized="0" sodipodi:cy="464.73053" sodipodi:cx="194.65298" inkscape:rounded="0" inkscape:flatsided="false" d="m207.87 477.95-12.052-5.8345-9.6589 9.2731 1.8247-13.265-11.804-6.3206 13.179-2.3636 2.3636-13.179 6.3206 11.804 13.265-1.8247-9.2731 9.6589z"/>
      <path id="path3180" d="m226.41 472.48c-8.8862-0.0678-15.101 1.1434-19.25 4.5938-4.1486 3.4504-5.7805 8.9476-5.8438 16.375l0.1875 237.62v0.0313 0.0313c0.16977 6.9451 2.6953 12.078 6.9688 15.281 4.2734 3.203 10.097 4.4688 16.781 4.4688h132.75v-3.0938h-132.75c-6.2828 0-11.434-1.2492-14.938-3.875-3.497-2.6211-5.5591-6.6031-5.7188-12.844v-0.0313l-0.1875-237.59c0.0596-7.005 1.4905-11.315 4.7188-14 3.2282-2.6849 8.6998-3.9405 17.281-3.875h133.72v-3.0938h-133.72z" style="block-progression:tb;text-indent:0;color:#000000;text-transform:none;fill:#000000" inkscape:connector-curvature="0"/>
      <path id="path3182" style="fill-rule:evenodd;fill:#000000" d="m392.78 471.87c5.655-1.7453 8.1624-4.5518 8.5056-8.2846 0.49469-5.4305-8.5458-7.9222-13.193-5.7459-2.795 1.3097-6.4805 4.5669-6.6814 8.4435 0.42358 8.9178 6.2362 13.023 13.616 14.355 14.312 2.5786 38.246-14.666 56.531-17.618 18.808-3.0368 26.41 4.459 30.702 10.102-8.9354-6.1821-19.55-7.6068-28.092-6.2266-19.593 3.1667-37.798 20.845-59.144 18.288-10.843-1.6727-19.658-10.447-16.823-20.8 4.4522-14.473 21.729-12.116 24.339-4.3691 2.625 7.805-3.9452 12.367-9.7609 11.856z" inkscape:export-ydpi="90" inkscape:export-filename="H:\template\template3\img\under_text2.png" inkscape:connector-curvature="0" inkscape:export-xdpi="90"/>
      <path id="path3186" style="fill-rule:evenodd;fill:#000000" d="m488.05 477.8c-31.425-15.89-43.49 2.4549-35.868 13.752-3.7349-12.03 5.2252-16.784 13.65-16.525 14.179 0.4378 26.234 8.8476 31.32 11.006l-9.1024-8.2336z" inkscape:export-ydpi="90" sodipodi:nodetypes="ccscc" inkscape:export-filename="H:\template\template3\img\under_text2.png" inkscape:connector-curvature="0" inkscape:export-xdpi="90"/>
      <path id="path3190" style="fill-rule:evenodd;fill:#000000" d="m506.51 477.59c31.419-15.89 44.992 2.6695 37.356 13.967 3.7411-12.03-5.2252-16.784-13.635-16.525-14.192 0.4378-24.951 6.9152-30.034 10.792l6.3135-8.2348z" inkscape:export-ydpi="90" sodipodi:nodetypes="ccscc" inkscape:export-filename="H:\template\template3\img\under_text2.png" inkscape:connector-curvature="0" inkscape:export-xdpi="90"/>
      <path id="path3192" style="fill-rule:evenodd;fill:#000000" d="m381.18 472.57c-18.668-15.89-32.656 7.7212-17.07 11.966-5.049-3.435-5.3983-9.0022-2.1766-12.023 3.8957-2.5925 8.7468-2.0641 13.505 0.53705 4.2482 2.7656 7.4915 6.61 9.3961 7.9704l-3.6545-8.4509z" inkscape:export-ydpi="90" sodipodi:nodetypes="cccccc" inkscape:export-filename="H:\template\template3\img\under_text2.png" inkscape:connector-curvature="0" inkscape:export-xdpi="90"/>
      <path id="path3194" style="fill-rule:evenodd;fill:#000000" d="m599.02 473.59c-5.658-1.7453-8.1934-4.5518-8.5335-8.2846-0.49469-5.4305 8.5644-7.9222 13.202-5.7462 2.8136 1.31 6.4928 4.567 6.6784 8.4438-0.40194 8.9178-6.2455 13.022-13.604 14.355-14.315 2.5817-38.246-14.666-56.55-17.618-18.798-3.0365-26.404 4.4594-30.69 10.103 8.923-6.1824 19.559-7.6071 28.092-6.227 19.602 3.167 37.813 20.845 59.147 18.288 10.852-1.6727 19.664-10.446 16.82-20.8-4.4522-14.473-21.736-12.117-24.333-4.3694-2.6281 7.805 3.9266 12.368 9.7702 11.856z" inkscape:export-ydpi="90" inkscape:export-filename="H:\template\template3\img\under_text2.png" inkscape:connector-curvature="0" inkscape:export-xdpi="90"/>
      <path id="path3196" style="fill-rule:evenodd;fill:#000000" d="m611.64 473.77c18.675-15.89 29.249 2.9403 20.777 9.371 3.5247-7.4068-1.5768-12.187-6.5856-11.927-8.4098 0.4378-14.81 8.8479-17.84 11.006l3.6484-8.4497z" inkscape:export-ydpi="90" sodipodi:nodetypes="ccscc" inkscape:export-filename="H:\template\template3\img\under_text2.png" inkscape:connector-curvature="0" inkscape:export-xdpi="90"/>
      <path id="path3195" style="fill-rule:evenodd;fill:#000000" d="m392.3 747.19c5.655-1.7453 8.1624-4.5518 8.5056-8.2846 0.49469-5.4305-8.5458-7.9222-13.193-5.7459-2.795 1.3097-6.4805 4.5669-6.6814 8.4435 0.42359 8.9178 6.2362 13.023 13.616 14.355 14.312 2.5786 38.246-14.666 56.531-17.618 18.808-3.0368 26.41 4.459 30.702 10.102-8.9354-6.1821-19.55-7.6068-28.092-6.2266-19.593 3.1667-37.798 20.845-59.144 18.288-10.843-1.6727-19.658-10.447-16.823-20.8 4.4522-14.473 21.729-12.116 24.339-4.3691 2.625 7.805-3.9452 12.367-9.7609 11.856z" inkscape:export-ydpi="90" inkscape:export-filename="H:\template\template3\img\under_text2.png" inkscape:connector-curvature="0" inkscape:export-xdpi="90"/>
      <path id="path3199" style="fill-rule:evenodd;fill:#000000" d="m487.57 753.12c-31.425-15.89-43.49 2.4549-35.868 13.752-3.7349-12.03 5.2252-16.784 13.65-16.525 14.179 0.4378 26.234 8.8476 31.32 11.006l-9.1024-8.2336z" inkscape:export-ydpi="90" sodipodi:nodetypes="ccscc" inkscape:export-filename="H:\template\template3\img\under_text2.png" inkscape:connector-curvature="0" inkscape:export-xdpi="90"/>
      <path id="path3203" style="fill-rule:evenodd;fill:#000000" d="m506.03 752.91c31.419-15.89 44.992 2.6695 37.356 13.967 3.7411-12.03-5.2252-16.784-13.635-16.525-14.192 0.4378-24.951 6.9152-30.034 10.792l6.3135-8.2348z" inkscape:export-ydpi="90" sodipodi:nodetypes="ccscc" inkscape:export-filename="H:\template\template3\img\under_text2.png" inkscape:connector-curvature="0" inkscape:export-xdpi="90"/>
      <path id="path3205" style="fill-rule:evenodd;fill:#000000" d="m380.7 747.89c-18.668-15.89-32.656 7.7212-17.07 11.966-5.049-3.435-5.3983-9.0022-2.1766-12.023 3.8957-2.5925 8.7468-2.0641 13.505 0.53705 4.2482 2.7656 7.4915 6.61 9.3961 7.9704l-3.6545-8.4509z" inkscape:export-ydpi="90" sodipodi:nodetypes="cccccc" inkscape:export-filename="H:\template\template3\img\under_text2.png" inkscape:connector-curvature="0" inkscape:export-xdpi="90"/>
      <path id="path3207" style="fill-rule:evenodd;fill:#000000" d="m598.55 748.91c-5.658-1.7453-8.1934-4.5518-8.5334-8.2846-0.49469-5.4305 8.5644-7.9222 13.202-5.7462 2.8136 1.31 6.4928 4.567 6.6784 8.4438-0.40194 8.9178-6.2455 13.022-13.604 14.355-14.315 2.5817-38.246-14.666-56.55-17.618-18.798-3.0365-26.404 4.4594-30.69 10.103 8.923-6.1824 19.559-7.6071 28.092-6.227 19.602 3.167 37.813 20.845 59.147 18.288 10.852-1.6727 19.664-10.446 16.82-20.8-4.4522-14.473-21.736-12.117-24.333-4.3694-2.6281 7.805 3.9266 12.368 9.7702 11.856z" inkscape:export-ydpi="90" inkscape:export-filename="H:\template\template3\img\under_text2.png" inkscape:connector-curvature="0" inkscape:export-xdpi="90"/>
      <path id="path3209" style="fill-rule:evenodd;fill:#000000" d="m611.16 749.09c18.675-15.89 29.249 2.9403 20.777 9.371 3.5247-7.4068-1.5768-12.187-6.5856-11.927-8.4098 0.4378-14.81 8.8479-17.84 11.006l3.6484-8.4497z" inkscape:export-ydpi="90" sodipodi:nodetypes="ccscc" inkscape:export-filename="H:\template\template3\img\under_text2.png" inkscape:connector-curvature="0" inkscape:export-xdpi="90"/>
      <path id="path3215" d="m633.75 472.48v3.0938h133.69c8.582-0.0655 14.05 1.1898 17.281 3.875 3.2308 2.6852 4.6587 6.9953 4.7188 14l-0.1875 237.59v0.0313c-0.15438 6.4546-1.0885 10.647-3.1875 13.094-2.103 2.4512-5.6299 3.625-11.906 3.625h-140.66v3.0938h140.66c6.6785 0 11.352-1.341 14.25-4.7188 2.898-3.3777 3.7799-8.3019 3.9375-15.031v-0.0313-0.0313l0.1875-237.62c-0.0637-7.4276-1.6928-12.925-5.8438-16.375-4.1458-3.4457-10.381-4.6582-19.25-4.5938h-0.0313-133.66z" style="block-progression:tb;text-indent:0;color:#000000;text-transform:none;fill:#000000" inkscape:connector-curvature="0"/>
    </g>
  </g>
  <metadata id="metadata26">
    <rdf:RDF>
      <cc:Work>
        <dc:format>image/svg+xml</dc:format>
        <dc:type rdf:resource="http://purl.org/dc/dcmitype/StillImage"/>
        <cc:license rdf:resource="http://creativecommons.org/licenses/publicdomain/"/>
        <dc:publisher>
          <cc:Agent rdf:about="http://openclipart.org/">
            <dc:title>Openclipart</dc:title>
          </cc:Agent>
        </dc:publisher>
      </cc:Work>
      <cc:License rdf:about="http://creativecommons.org/licenses/publicdomain/">
        <cc:permits rdf:resource="http://creativecommons.org/ns#Reproduction"/>
        <cc:permits rdf:resource="http://creativecommons.org/ns#Distribution"/>
        <cc:permits rdf:resource="http://creativecommons.org/ns#DerivativeWorks"/>
      </cc:License>
    </rdf:RDF>
  </metadata>
</svg>